<svg width="28" height="20" viewBox="0 0 28 20" fill="none" xmlns="http://www.w3.org/2000/svg">
<path fill-rule="evenodd" clip-rule="evenodd" d="M1.19997 0.399902C0.610869 0.399902 0.133301 0.87747 0.133301 1.46657C0.133301 2.05567 0.610869 2.53324 1.19997 2.53324H26.8C27.389 2.53324 27.8666 2.05567 27.8666 1.46657C27.8666 0.87747 27.389 0.399902 26.8 0.399902H1.19997ZM0.133301 9.9999C0.133301 9.4108 0.610869 8.93324 1.19997 8.93324H26.8C27.389 8.93324 27.8666 9.4108 27.8666 9.9999C27.8666 10.589 27.389 11.0666 26.8 11.0666H1.19997C0.610869 11.0666 0.133301 10.589 0.133301 9.9999ZM0.133301 18.5332C0.133301 17.9442 0.610869 17.4666 1.19997 17.4666H26.8C27.389 17.4666 27.8666 17.9442 27.8666 18.5332C27.8666 19.1223 27.389 19.5999 26.8 19.5999H1.19997C0.610869 19.5999 0.133301 19.1223 0.133301 18.5332Z" fill="#373E46"/>
</svg>
