<svg width="18" height="18" viewBox="0 0 18 18" fill="none" xmlns="http://www.w3.org/2000/svg">
<g clip-path="url(#clip0_845_6265)">
<path d="M15.6745 0H2.32534C1.50411 0 0.838379 0.665726 0.838379 1.48696V16.513C0.838379 17.3343 1.50411 18 2.32534 18H15.6745C16.4958 18 17.1615 17.3343 17.1615 16.513V1.48696C17.1615 0.665726 16.4958 0 15.6745 0ZM5.65428 15.4898C5.65428 15.7163 5.47064 15.9 5.24407 15.9H3.16883C2.94227 15.9 2.75863 15.7163 2.75863 15.4898V13.4145C2.75863 13.188 2.94227 13.0043 3.16883 13.0043H5.24407C5.47064 13.0043 5.65428 13.188 5.65428 13.4145V15.4898ZM5.65428 10.8985C5.65428 11.1251 5.47064 11.3087 5.24407 11.3087H3.16883C2.94227 11.3087 2.75863 11.1251 2.75863 10.8985V8.82329C2.75863 8.59672 2.94227 8.41308 3.16883 8.41308H5.24407C5.47064 8.41308 5.65428 8.59672 5.65428 8.82329V10.8985ZM10.4478 15.4898C10.4478 15.7163 10.2641 15.9 10.0376 15.9H7.96231C7.73574 15.9 7.55211 15.7163 7.55211 15.4898V13.4145C7.55211 13.188 7.73574 13.0043 7.96231 13.0043H10.0376C10.2641 13.0043 10.4478 13.188 10.4478 13.4145V15.4898ZM10.4478 10.8985C10.4478 11.1251 10.2641 11.3087 10.0376 11.3087H7.96231C7.73574 11.3087 7.55211 11.1251 7.55211 10.8985V8.82329C7.55211 8.59672 7.73574 8.41308 7.96231 8.41308H10.0376C10.2641 8.41308 10.4478 8.59672 10.4478 8.82329V10.8985ZM15.2412 15.4898C15.2412 15.7163 15.0576 15.9 14.831 15.9H12.7558C12.5292 15.9 12.3456 15.7163 12.3456 15.4898V13.4145C12.3456 13.188 12.5293 13.0043 12.7558 13.0043H14.831C15.0576 13.0043 15.2412 13.188 15.2412 13.4145V15.4898ZM15.2412 10.8985C15.2412 11.1251 15.0576 11.3087 14.831 11.3087H12.7558C12.5292 11.3087 12.3456 11.1251 12.3456 10.8985V8.82329C12.3456 8.59672 12.5293 8.41308 12.7558 8.41308H14.831C15.0576 8.41308 15.2412 8.59672 15.2412 8.82329V10.8985ZM15.2412 5.92893C15.2412 6.15549 15.0576 6.33913 14.831 6.33913H3.16883C2.94227 6.33913 2.75863 6.15549 2.75863 5.92893V2.2102C2.75863 1.98364 2.94227 1.8 3.16883 1.8H14.831C15.0576 1.8 15.2412 1.98364 15.2412 2.2102V5.92893Z" fill="white"/>
</g>
<defs>
<clipPath id="clip0_845_6265">
<rect width="18" height="18" fill="white"/>
</clipPath>
</defs>
</svg>
