<svg width="25" height="24" viewBox="0 0 25 24" fill="none" xmlns="http://www.w3.org/2000/svg">
<path d="M21.5 12H19.5C18.3954 12 17.5 12.8954 17.5 14V16C17.5 17.1046 18.3954 18 19.5 18C20.6046 18 21.5 17.1046 21.5 16V12ZM21.5 12C21.5 7.02944 17.4706 3 12.5 3C7.52944 3 3.5 7.02944 3.5 12V16C3.5 17.1046 4.39543 18 5.5 18C6.60457 18 7.5 17.1046 7.5 16V14C7.5 12.8954 6.60457 12 5.5 12H3.5" stroke="#373E46" stroke-width="2" stroke-linecap="round" stroke-linejoin="round"/>
<path d="M21.5 14V18C21.5 20 20.8333 21 19.5 21C18.1667 21 16.5 21 14.5 21" stroke="#373E46" stroke-width="2" stroke-linecap="round" stroke-linejoin="round"/>
</svg>
