<svg width="18" height="18" viewBox="0 0 18 18" fill="none" xmlns="http://www.w3.org/2000/svg">
<path d="M15.75 9H14.25C13.4216 9 12.75 9.67157 12.75 10.5V12C12.75 12.8284 13.4216 13.5 14.25 13.5C15.0784 13.5 15.75 12.8284 15.75 12V9ZM15.75 9C15.75 5.27208 12.7279 2.25 9 2.25C5.27208 2.25 2.25 5.27208 2.25 9V12C2.25 12.8284 2.92157 13.5 3.75 13.5C4.57843 13.5 5.25 12.8284 5.25 12V10.5C5.25 9.67157 4.57843 9 3.75 9H2.25" stroke="white" stroke-width="2" stroke-linecap="round" stroke-linejoin="round"/>
<path d="M15.75 10.5V13.5C15.75 15 15.25 15.75 14.25 15.75C13.25 15.75 12 15.75 10.5 15.75" stroke="white" stroke-width="2" stroke-linecap="round" stroke-linejoin="round"/>
</svg>
