<svg width="24" height="24" viewBox="0 0 24 24" fill="none" xmlns="http://www.w3.org/2000/svg">
<g clip-path="url(#clip0_801_9380)">
<path d="M16.1579 16.0591C15.937 16.0591 15.7603 16.226 15.7358 16.4468C15.5444 18.3413 13.9444 19.8186 11.9959 19.8186C10.0524 19.8186 8.45237 18.3413 8.25605 16.4468C8.23151 16.2309 8.05482 16.0591 7.83396 16.0591H2.72967C1.65973 16.0591 0.791016 16.9278 0.791016 17.9977V22.0615C0.791016 23.1315 1.65973 24.0002 2.72967 24.0002H21.272C22.3419 24.0002 23.2106 23.1315 23.2106 22.0615V18.0026C23.2106 16.9327 22.3419 16.064 21.272 16.064H16.1579V16.0591Z" fill="white"/>
<path d="M14.8965 9.74724L13.38 11.2638V1.37914C13.38 0.618405 12.7616 0 12.0008 0C11.2401 0 10.6217 0.618405 10.6217 1.37914V11.2638L9.10512 9.74724C8.63886 9.28098 7.89285 9.16319 7.34316 9.53129C6.59224 10.0319 6.51862 11.0577 7.1223 11.6613L11.1861 15.7252C11.6376 16.1767 12.3689 16.1767 12.8205 15.7252L16.8843 11.6613C17.4879 11.0577 17.4143 10.0319 16.6634 9.53129C16.1088 9.15828 15.3628 9.27607 14.8965 9.74724Z" fill="white"/>
</g>
<defs>
<clipPath id="clip0_801_9380">
<rect width="24" height="24" fill="white"/>
</clipPath>
</defs>
</svg>
