<svg width="18" height="18" viewBox="0 0 18 18" fill="none" xmlns="http://www.w3.org/2000/svg">
<path d="M9.00004 1.44629C12.4617 1.44629 15.2679 4.2525 15.2679 7.71415C15.2679 10.3625 13.4071 13.2487 9.73302 16.4042C9.31143 16.7663 8.68862 16.7663 8.26536 16.4027L8.02252 16.1922C4.51104 13.1198 2.73218 10.3035 2.73218 7.71415C2.73218 4.2525 5.53839 1.44629 9.00004 1.44629ZM9.00004 5.30343C7.66863 5.30343 6.58932 6.38275 6.58932 7.71415C6.58932 9.04555 7.66863 10.1249 9.00004 10.1249C10.3314 10.1249 11.4107 9.04555 11.4107 7.71415C11.4107 6.38275 10.3314 5.30343 9.00004 5.30343Z" fill="white"/>
</svg>
