<svg width="18" height="18" viewBox="0 0 18 18" fill="none" xmlns="http://www.w3.org/2000/svg">
<path d="M16.7739 11.9704C15.8596 11.2356 15.0209 10.8784 14.2098 10.8784C13.0364 10.8784 12.1916 11.6248 11.4268 12.3894C11.3388 12.4774 11.2323 12.5185 11.0916 12.5185C10.4471 12.5185 9.31326 11.7114 7.72157 10.1195C5.84902 8.24683 5.14104 7.05577 5.6171 6.57952C6.90764 5.28941 7.31053 3.99611 5.33462 1.53875C4.62726 0.658354 3.93519 0.230469 3.21887 0.230469C2.25284 0.230469 1.51848 1.00267 0.870578 1.68403C0.758563 1.8018 0.652751 1.91307 0.549006 2.01681C-0.183286 2.74904 -0.18291 4.34619 0.550071 6.2894C1.35428 8.4215 2.94216 10.7408 5.02125 12.8203C6.62911 14.428 8.37856 15.7273 10.0806 16.5997C11.5665 17.3614 13.0079 17.7694 14.1391 17.7694C14.1392 17.7694 14.1393 17.7694 14.1395 17.7694C14.8475 17.7694 15.4225 17.615 15.8023 17.301C16.5737 16.6631 18.0096 15.4817 18 14.0784C17.9948 13.3258 17.5824 12.6204 16.7739 11.9704Z" fill="white"/>
</svg>
