<svg width="25" height="24" viewBox="0 0 25 24" fill="none" xmlns="http://www.w3.org/2000/svg">
<path d="M12.25 2.35272V3.55983V14.2498C12.25 14.3161 12.2763 14.3797 12.3232 14.4266C12.3701 14.4735 12.4337 14.4998 12.5 14.4998C12.5663 14.4998 12.6299 14.4735 12.6768 14.4266C12.7237 14.3797 12.75 14.3161 12.75 14.2498V3.55983V2.35272L13.6036 3.20627L15.5736 5.17628L15.5798 5.18251L15.5858 5.18897C15.6087 5.21353 15.6363 5.23323 15.667 5.24689C15.6976 5.26056 15.7307 5.26791 15.7643 5.2685C15.7979 5.26909 15.8312 5.26292 15.8623 5.25034C15.8935 5.23777 15.9217 5.21905 15.9455 5.19531C15.9692 5.17157 15.9879 5.14329 16.0005 5.11217C16.0131 5.08104 16.0193 5.0477 16.0187 5.01413C16.0181 4.98056 16.0107 4.94745 15.9971 4.91679C15.9834 4.88612 15.9637 4.85852 15.9391 4.83563L15.9327 4.82962L15.9264 4.82338L12.6767 1.5736L12.25 2.35272ZM12.25 2.35272L11.3964 3.20627M12.25 2.35272L11.3964 3.20627M11.3964 3.20627L9.43436 5.16836C9.38758 5.20975 9.32691 5.23219 9.2643 5.23108C9.19953 5.22994 9.13774 5.2037 9.09193 5.1579C9.04613 5.11209 9.01989 5.0503 9.01875 4.98553C9.01764 4.92292 9.04007 4.86226 9.08146 4.81547L12.3233 1.5736C12.3234 1.57356 12.3234 1.57352 12.3235 1.57348C12.3703 1.52674 12.4338 1.50049 12.5 1.50049C12.5661 1.50049 12.6296 1.5267 12.6764 1.57338L11.3964 3.20627ZM5.71967 9.2195C5.57902 9.36015 5.5 9.55092 5.5 9.74983V20.2498C5.5 20.4487 5.57902 20.6395 5.71967 20.7802C5.86032 20.9208 6.05109 20.9998 6.25 20.9998H18.75C18.9489 20.9998 19.1397 20.9208 19.2803 20.7802C19.421 20.6395 19.5 20.4487 19.5 20.2498V9.74983C19.5 9.55092 19.421 9.36015 19.2803 9.2195C19.1397 9.07884 18.9489 8.99983 18.75 8.99983H16.25C16.1837 8.99983 16.1201 8.97349 16.0732 8.9266C16.0263 8.87972 16 8.81613 16 8.74983C16 8.68352 16.0263 8.61994 16.0732 8.57305C16.1201 8.52617 16.1837 8.49983 16.25 8.49983H18.75C19.0815 8.49983 19.3995 8.63152 19.6339 8.86594C19.8683 9.10037 20 9.41831 20 9.74983V20.2498C20 20.5813 19.8683 20.8993 19.6339 21.1337C19.3995 21.3681 19.0815 21.4998 18.75 21.4998H6.25C5.56014 21.4998 5 20.9397 5 20.2498V9.74983C5 9.41831 5.1317 9.10036 5.36612 8.86594C5.60054 8.63152 5.91848 8.49983 6.25 8.49983H8.75C8.8163 8.49983 8.87989 8.52617 8.92678 8.57305C8.97366 8.61994 9 8.68353 9 8.74983C9 8.81613 8.97366 8.87972 8.92678 8.92661C8.87989 8.97349 8.8163 8.99983 8.75 8.99983H6.25C6.05109 8.99983 5.86032 9.07884 5.71967 9.2195Z" fill="#373E46" stroke="white"/>
</svg>
