<svg width="20" height="20" viewBox="0 0 20 20" fill="none" xmlns="http://www.w3.org/2000/svg">
<path d="M0.836992 19.1666L2.07633 14.6126C1.2597 13.2127 0.830663 11.6206 0.833325 9.99992C0.833325 4.93717 4.93724 0.833252 9.99999 0.833252C15.0627 0.833252 19.1667 4.93717 19.1667 9.99992C19.1667 15.0627 15.0627 19.1666 9.99999 19.1666C8.38004 19.1692 6.78859 18.7405 5.38916 17.9245L0.836992 19.1666ZM6.69174 5.69892C6.57337 5.70627 6.45769 5.73745 6.35166 5.79059C6.25222 5.8469 6.16145 5.91729 6.08216 5.99959C5.97216 6.10317 5.90983 6.193 5.84291 6.28009C5.50412 6.721 5.32188 7.26222 5.32499 7.81825C5.32683 8.26742 5.44416 8.70467 5.62749 9.1135C6.00241 9.94034 6.61933 10.8158 7.43424 11.627C7.63041 11.8223 7.82199 12.0184 8.02824 12.2008C9.03968 13.0913 10.245 13.7335 11.5482 14.0763L12.0698 14.1561C12.2394 14.1653 12.409 14.1524 12.5795 14.1442C12.8465 14.1304 13.1071 14.0581 13.3431 13.9324C13.4952 13.8518 13.5667 13.8114 13.6942 13.7308C13.6942 13.7308 13.7336 13.7051 13.8087 13.6483C13.9325 13.5566 14.0086 13.4915 14.1112 13.3843C14.1873 13.3054 14.2533 13.2128 14.3037 13.1074C14.3752 12.958 14.4467 12.6729 14.4761 12.4355C14.4981 12.254 14.4917 12.155 14.4889 12.0936C14.4852 11.9955 14.4037 11.8938 14.3147 11.8507L13.7812 11.6114C13.7812 11.6114 12.9837 11.264 12.497 11.0422C12.4457 11.0198 12.3907 11.0071 12.3347 11.0046C12.272 10.9981 12.2087 11.0052 12.1489 11.0253C12.0891 11.0454 12.0343 11.078 11.9882 11.121V11.1192C11.9837 11.1192 11.9222 11.1714 11.2595 11.9744C11.2215 12.0255 11.1691 12.0642 11.109 12.0854C11.0489 12.1066 10.9839 12.1095 10.9222 12.0936C10.8624 12.0776 10.8039 12.0574 10.7471 12.0331C10.6334 11.9854 10.594 11.9671 10.5161 11.9332L10.5115 11.9313C9.98708 11.7024 9.50153 11.3931 9.07233 11.0147C8.95683 10.9138 8.84958 10.8038 8.73958 10.6975C8.37894 10.3521 8.06465 9.96143 7.80457 9.53517L7.75049 9.44809C7.71165 9.38957 7.68024 9.32645 7.65699 9.26017C7.62216 9.12542 7.71291 9.01725 7.71291 9.01725C7.71291 9.01725 7.93566 8.77342 8.03924 8.64142C8.12549 8.53171 8.20596 8.41759 8.28033 8.2995C8.38849 8.12534 8.42241 7.94659 8.36558 7.80817C8.10891 7.18117 7.84308 6.55692 7.56991 5.93725C7.51583 5.81442 7.35541 5.72642 7.20966 5.709C7.16016 5.7035 7.11066 5.698 7.06116 5.69434C6.93806 5.68822 6.8147 5.68944 6.69174 5.698V5.69892Z" fill="white"/>
</svg>
